<mxfile host="65bd71144e">
    <diagram id="_-OYjZtTmIq2oqORJCZU" name="Page-1">
        <mxGraphModel dx="1105" dy="393" grid="1" gridSize="10" guides="1" tooltips="1" connect="1" arrows="1" fold="1" page="1" pageScale="1" pageWidth="850" pageHeight="1100" math="0" shadow="0">
            <root>
                <mxCell id="0"/>
                <mxCell id="1" parent="0"/>
                <mxCell id="10" style="edgeStyle=orthogonalEdgeStyle;rounded=0;orthogonalLoop=1;jettySize=auto;html=1;exitX=0.5;exitY=1;exitDx=0;exitDy=0;entryX=0.5;entryY=0;entryDx=0;entryDy=0;" edge="1" parent="1" source="2" target="3">
                    <mxGeometry relative="1" as="geometry"/>
                </mxCell>
                <mxCell id="19" style="edgeStyle=orthogonalEdgeStyle;rounded=0;orthogonalLoop=1;jettySize=auto;html=1;exitX=0.5;exitY=1;exitDx=0;exitDy=0;entryX=0.5;entryY=0;entryDx=0;entryDy=0;" edge="1" parent="1" source="2" target="17">
                    <mxGeometry relative="1" as="geometry"/>
                </mxCell>
                <mxCell id="2" value="App" style="swimlane;" vertex="1" parent="1">
                    <mxGeometry x="325" y="20" width="200" height="90" as="geometry"/>
                </mxCell>
                <mxCell id="4" value="States: formData&lt;br&gt;&amp;nbsp; &amp;nbsp; &amp;nbsp; &amp;nbsp; &amp;nbsp; &amp;nbsp; &amp;nbsp; &amp;nbsp; &amp;nbsp; &amp;nbsp; WeatherCards" style="text;html=1;align=center;verticalAlign=middle;resizable=0;points=[];autosize=1;strokeColor=none;" vertex="1" parent="2">
                    <mxGeometry x="-15" y="30" width="160" height="30" as="geometry"/>
                </mxCell>
                <mxCell id="12" style="edgeStyle=orthogonalEdgeStyle;rounded=0;orthogonalLoop=1;jettySize=auto;html=1;exitX=0.5;exitY=1;exitDx=0;exitDy=0;entryX=0.5;entryY=0;entryDx=0;entryDy=0;" edge="1" parent="1" source="3" target="7">
                    <mxGeometry relative="1" as="geometry"/>
                </mxCell>
                <mxCell id="13" style="edgeStyle=orthogonalEdgeStyle;rounded=0;orthogonalLoop=1;jettySize=auto;html=1;exitX=0.5;exitY=1;exitDx=0;exitDy=0;entryX=0.5;entryY=0;entryDx=0;entryDy=0;" edge="1" parent="1" source="3" target="8">
                    <mxGeometry relative="1" as="geometry"/>
                </mxCell>
                <mxCell id="38" style="edgeStyle=orthogonalEdgeStyle;rounded=0;orthogonalLoop=1;jettySize=auto;html=1;exitX=0.5;exitY=1;exitDx=0;exitDy=0;entryX=0.5;entryY=0;entryDx=0;entryDy=0;" edge="1" parent="1" source="3" target="36">
                    <mxGeometry relative="1" as="geometry"/>
                </mxCell>
                <mxCell id="3" value="Form" style="swimlane;" vertex="1" parent="1">
                    <mxGeometry x="200" y="150" width="200" height="90" as="geometry"/>
                </mxCell>
                <mxCell id="14" value="Props: formData" style="text;html=1;align=center;verticalAlign=middle;resizable=0;points=[];autosize=1;strokeColor=none;" vertex="1" parent="3">
                    <mxGeometry x="20" y="35" width="100" height="20" as="geometry"/>
                </mxCell>
                <mxCell id="7" value="Input" style="swimlane;" vertex="1" parent="1">
                    <mxGeometry x="10" y="280" width="200" height="90" as="geometry"/>
                </mxCell>
                <mxCell id="8" value="SubmitButton" style="swimlane;" vertex="1" parent="1">
                    <mxGeometry x="240" y="280" width="150" height="90" as="geometry"/>
                </mxCell>
                <mxCell id="16" value="Props: Submit action" style="text;html=1;align=center;verticalAlign=middle;resizable=0;points=[];autosize=1;strokeColor=none;" vertex="1" parent="8">
                    <mxGeometry x="5" y="30" width="130" height="20" as="geometry"/>
                </mxCell>
                <mxCell id="15" value="Props: City" style="text;html=1;align=center;verticalAlign=middle;resizable=0;points=[];autosize=1;strokeColor=none;" vertex="1" parent="1">
                    <mxGeometry x="35" y="310" width="70" height="20" as="geometry"/>
                </mxCell>
                <mxCell id="42" style="edgeStyle=orthogonalEdgeStyle;rounded=0;orthogonalLoop=1;jettySize=auto;html=1;exitX=0.5;exitY=1;exitDx=0;exitDy=0;entryX=0.5;entryY=0;entryDx=0;entryDy=0;" edge="1" parent="1" source="17" target="39">
                    <mxGeometry relative="1" as="geometry"/>
                </mxCell>
                <mxCell id="17" value="WeatherComponent" style="swimlane;" vertex="1" parent="1">
                    <mxGeometry x="540" y="150" width="200" height="90" as="geometry"/>
                </mxCell>
                <mxCell id="18" value="State: WeatherData&lt;br&gt;&lt;br&gt;Props: formData&lt;br&gt;&lt;span style=&quot;white-space: pre&quot;&gt;&#9;&lt;/span&gt;&lt;span style=&quot;white-space: pre&quot;&gt;&#9;&lt;/span&gt;&amp;nbsp; &amp;nbsp;WeatherCards" style="text;html=1;align=center;verticalAlign=middle;resizable=0;points=[];autosize=1;strokeColor=none;" vertex="1" parent="17">
                    <mxGeometry x="-10" y="25" width="160" height="60" as="geometry"/>
                </mxCell>
                <mxCell id="20" value="" style="rounded=0;whiteSpace=wrap;html=1;" vertex="1" parent="1">
                    <mxGeometry x="100" y="460" width="660" height="430" as="geometry"/>
                </mxCell>
                <mxCell id="21" value="Form" style="rounded=1;whiteSpace=wrap;html=1;align=left;" vertex="1" parent="1">
                    <mxGeometry x="250" y="540" width="340" height="57.5" as="geometry"/>
                </mxCell>
                <mxCell id="22" value="Input" style="rounded=0;whiteSpace=wrap;html=1;" vertex="1" parent="1">
                    <mxGeometry x="290" y="560" width="160" height="20" as="geometry"/>
                </mxCell>
                <mxCell id="23" value="Submit" style="rounded=0;whiteSpace=wrap;html=1;" vertex="1" parent="1">
                    <mxGeometry x="520" y="560" width="50" height="20" as="geometry"/>
                </mxCell>
                <mxCell id="25" value="Title" style="rounded=0;whiteSpace=wrap;html=1;" vertex="1" parent="1">
                    <mxGeometry x="100" y="460" width="660" height="50" as="geometry"/>
                </mxCell>
                <mxCell id="27" value="Home" style="rounded=0;whiteSpace=wrap;html=1;" vertex="1" parent="1">
                    <mxGeometry x="690" y="475" width="50" height="20" as="geometry"/>
                </mxCell>
                <mxCell id="28" value="Login" style="rounded=0;whiteSpace=wrap;html=1;" vertex="1" parent="1">
                    <mxGeometry x="630" y="475" width="50" height="20" as="geometry"/>
                </mxCell>
                <mxCell id="29" value="Weather&lt;br&gt;Component" style="rounded=1;whiteSpace=wrap;html=1;align=left;" vertex="1" parent="1">
                    <mxGeometry x="250" y="620" width="340" height="115" as="geometry"/>
                </mxCell>
                <mxCell id="30" value="Unit" style="rounded=0;whiteSpace=wrap;html=1;" vertex="1" parent="1">
                    <mxGeometry x="460" y="560" width="50" height="20" as="geometry"/>
                </mxCell>
                <mxCell id="31" value="Weather Data" style="text;html=1;strokeColor=none;fillColor=none;align=center;verticalAlign=middle;whiteSpace=wrap;rounded=0;" vertex="1" parent="1">
                    <mxGeometry x="370" y="667.5" width="150" height="20" as="geometry"/>
                </mxCell>
                <mxCell id="32" value="Clear" style="rounded=0;whiteSpace=wrap;html=1;" vertex="1" parent="1">
                    <mxGeometry x="525" y="630" width="50" height="20" as="geometry"/>
                </mxCell>
                <mxCell id="33" value="Weather&lt;br&gt;Component" style="rounded=1;whiteSpace=wrap;html=1;align=left;" vertex="1" parent="1">
                    <mxGeometry x="250" y="750" width="340" height="115" as="geometry"/>
                </mxCell>
                <mxCell id="34" value="Weather Data" style="text;html=1;strokeColor=none;fillColor=none;align=center;verticalAlign=middle;whiteSpace=wrap;rounded=0;" vertex="1" parent="1">
                    <mxGeometry x="370" y="797.5" width="150" height="20" as="geometry"/>
                </mxCell>
                <mxCell id="35" value="Clear" style="rounded=0;whiteSpace=wrap;html=1;" vertex="1" parent="1">
                    <mxGeometry x="525" y="760" width="50" height="20" as="geometry"/>
                </mxCell>
                <mxCell id="36" value="Dropdown" style="swimlane;" vertex="1" parent="1">
                    <mxGeometry x="425" y="280" width="150" height="90" as="geometry"/>
                </mxCell>
                <mxCell id="37" value="Props: units" style="text;html=1;align=center;verticalAlign=middle;resizable=0;points=[];autosize=1;strokeColor=none;" vertex="1" parent="36">
                    <mxGeometry x="20" y="30" width="80" height="20" as="geometry"/>
                </mxCell>
                <mxCell id="39" value="ClearButton" style="swimlane;" vertex="1" parent="1">
                    <mxGeometry x="615" y="280" width="200" height="90" as="geometry"/>
                </mxCell>
                <mxCell id="40" value="Props: Submit action" style="text;html=1;align=center;verticalAlign=middle;resizable=0;points=[];autosize=1;strokeColor=none;" vertex="1" parent="39">
                    <mxGeometry x="5" y="30" width="130" height="20" as="geometry"/>
                </mxCell>
            </root>
        </mxGraphModel>
    </diagram>
</mxfile>